# xmcd
#
# Track frame offsets:
#	150
#	14293
#	31941
#	45512
#	61756
#	75165
#	87359
#	100984
#
# Disc length: 1533 seconds
#
# Revision: 1
# Processed by: cddbd v1.5PL3 Copyright (c) Steve Scherf et al.
# Submitted via: EasyCDDAExtractor 5.0.6
#
DISCID=4d05fb08
DTITLE=Oberlin Obertones - Spring Tour EP
DYEAR=2004
DGENRE=Acapella
TTITLE0=Bad Fish - Jim Reynolds
TTITLE1=Raining in Baltimore - Andrew MacIver
TTITLE2=Army - Benji Whatley
TTITLE3=No Surprises - Joo Kim
TTITLE4=No Rain - Andrew MacIver
TTITLE5=King of Carrotflowers - Benji Whatley
TTITLE6=Novocaine for the Soul - Andrew MacIver
TTITLE7=Africa - Scott Grogan
EXTD=
EXTT0=
EXTT1=
EXTT2=
EXTT3=
EXTT4=
EXTT5=
EXTT6=
EXTT7=
PLAYORDER=
